<svg xmlns="http://www.w3.org/2000/svg" viewBox="0 0 25 25"><defs/><title>
    Calendar_icon_1</title><g id="Layer_2"><g id="Calender"><rect class="cls-calendar1" x="0.5" y="2.5" width="24" height="22" rx="1" ry="1" style="fill: none; stroke: #000; stroke-miterlimit: 10;"/><path class="cls-calendar2" d="M1.5,2.5h22a1,1,0,0,1,1,1v4a0,0,0,0,1,0,0H.5a0,0,0,0,1,0,0v-4A1,1,0,0,1,1.5,2.5Z" style="stroke: #000; fill: #009688; stroke-linecap: round; stroke-linejoin: round;"/><line class="cls-calendar3" x1="15.72" y1="10.5" x2="15.72" y2="22.5" style="fill: none; stroke: #000; stroke-linecap: round; stroke-linejoin: round;"/><line class="cls-calendar3" x1="9.72" y1="22.5" x2="9.72" y2="10.5" style="fill: none; stroke: #000; stroke-linecap: round; stroke-linejoin: round;"/><line class="cls-calendar3" x1="20.81" y1="19.5" x2="4.63" y2="19.5" style="fill: none; stroke: #000; stroke-linecap: round; stroke-linejoin: round;"/><line class="cls-calendar3" x1="4.63" y1="13.5" x2="20.81" y2="13.5" style="fill: none; stroke: #000; stroke-linecap: round; stroke-linejoin: round;"/><line class="cls-calendar3" x1="20.34" y1="0.5" x2="20.31" y2="2.18" style="fill: none; stroke: #000; stroke-linecap: round; stroke-linejoin: round;"/><line class="cls-calendar3" x1="4.66" y1="0.5" x2="4.63" y2="2.5" style="fill: none; stroke: #000; stroke-linecap: round; stroke-linejoin: round;"/></g></g></svg>
